<?xml version="1.0" standalone="no"?>
<!DOCTYPE svg PUBLIC "-//W3C//DTD SVG 20010904//EN"
 "http://www.w3.org/TR/2001/REC-SVG-20010904/DTD/svg10.dtd">
<svg version="1.0" xmlns="http://www.w3.org/2000/svg"
 width="200.000000pt" height="200.000000pt" viewBox="0 0 200.000000 200.000000"
 preserveAspectRatio="xMidYMid meet">
<metadata>
Created by potrace 1.10, written by Peter Selinger 2001-2011
</metadata>
<g transform="translate(0.000000,200.000000) scale(0.100000,-0.100000)"
fill="#663f46" stroke="none">
<path d="M698 1939 c-11 -6 -18 -22 -18 -41 0 -24 14 -45 70 -102 72 -75 80
-86 56 -86 -7 0 -40 -13 -72 -30 -57 -29 -63 -30 -200 -30 -78 0 -165 -5 -194
-10 -168 -32 -298 -160 -330 -325 -8 -41 -10 -182 -8 -450 3 -371 4 -393 25
-442 49 -123 152 -214 277 -248 l66 -18 0 -38 c0 -46 27 -69 80 -69 54 0 80
23 80 71 l0 39 453 -2 452 -3 5 -35 c12 -86 160 -72 160 16 0 19 7 23 55 29
158 19 304 160 335 324 14 74 13 765 -1 833 -34 160 -165 287 -329 318 -29 5
-139 10 -244 10 l-191 0 -59 30 c-32 17 -65 30 -72 30 -24 0 -16 11 61 91 41
42 75 83 75 91 0 24 -30 58 -52 58 -13 0 -61 -39 -126 -101 l-105 -101 -101
101 c-56 56 -108 101 -116 101 -8 0 -23 -5 -32 -11z m782 -473 c68 -37 109
-77 139 -138 l31 -61 0 -366 c0 -366 0 -366 -24 -418 -32 -69 -95 -127 -163
-153 -54 -20 -70 -21 -577 -18 -519 3 -521 3 -563 26 -66 35 -110 79 -140 140
l-28 57 -3 333 c-4 370 1 415 51 489 34 50 108 107 161 122 17 6 257 9 556 8
494 -2 527 -3 560 -21z m396 -361 c32 -49 -11 -106 -69 -92 -21 6 -47 42 -47
67 0 21 41 50 70 50 20 0 35 -8 46 -25z m4 -177 c13 -25 13 -31 0 -55 -27 -47
-89 -43 -110 7 -10 25 -10 34 4 56 24 36 84 31 106 -8z m-5 -161 c21 -29 19
-53 -6 -78 -27 -27 -67 -21 -92 13 -17 23 -19 31 -9 53 21 46 79 52 107 12z"/>
<path d="M400 1401 c-81 -26 -138 -81 -165 -160 -16 -50 -14 -71 7 -71 6 0 37
29 69 64 33 35 84 81 115 101 36 24 54 43 52 53 -4 19 -40 25 -78 13z"/>
<path d="M736 1198 c-13 -19 -16 -61 -16 -260 0 -228 1 -239 21 -259 13 -13
29 -19 40 -16 37 10 412 232 425 252 28 43 10 59 -205 185 -114 66 -217 120
-229 120 -11 0 -28 -10 -36 -22z"/>
</g>
</svg>
