<svg width="103" height="40" viewBox="0 0 103 40" fill="none" xmlns="http://www.w3.org/2000/svg">
<path d="M14.77 3.738V17H12.11V8.374L8.55697 17H6.54297L2.97097 8.374V17H0.310974V3.738H3.33197L7.54997 13.599L11.768 3.738H14.77Z" fill="#D84727"/>
<path d="M22.0738 17.171C21.0605 17.171 20.1485 16.9493 19.3378 16.506C18.5272 16.05 17.8875 15.4103 17.4188 14.587C16.9628 13.7637 16.7348 12.8137 16.7348 11.737C16.7348 10.6603 16.9692 9.71033 17.4378 8.887C17.9192 8.06366 18.5715 7.43033 19.3948 6.987C20.2182 6.531 21.1365 6.303 22.1498 6.303C23.1632 6.303 24.0815 6.531 24.9048 6.987C25.7282 7.43033 26.3742 8.06366 26.8428 8.887C27.3242 9.71033 27.5648 10.6603 27.5648 11.737C27.5648 12.8137 27.3178 13.7637 26.8238 14.587C26.3425 15.4103 25.6838 16.05 24.8478 16.506C24.0245 16.9493 23.0998 17.171 22.0738 17.171ZM22.0738 14.853C22.5552 14.853 23.0048 14.739 23.4228 14.511C23.8535 14.2703 24.1955 13.9157 24.4488 13.447C24.7022 12.9783 24.8288 12.4083 24.8288 11.737C24.8288 10.7363 24.5628 9.97 24.0308 9.438C23.5115 8.89333 22.8718 8.621 22.1118 8.621C21.3518 8.621 20.7122 8.89333 20.1928 9.438C19.6862 9.97 19.4328 10.7363 19.4328 11.737C19.4328 12.7377 19.6798 13.5103 20.1738 14.055C20.6805 14.587 21.3138 14.853 22.0738 14.853Z" fill="#D84727"/>
<path d="M33.9051 14.549L36.5651 6.474H39.3961L35.5011 17H32.2711L28.3951 6.474H31.2451L33.9051 14.549Z" fill="#D84727"/>
<path d="M42.2391 5.22C41.7704 5.22 41.3777 5.07433 41.0611 4.783C40.7571 4.479 40.6051 4.10533 40.6051 3.662C40.6051 3.21866 40.7571 2.85133 41.0611 2.56C41.3777 2.256 41.7704 2.104 42.2391 2.104C42.7077 2.104 43.0941 2.256 43.3981 2.56C43.7147 2.85133 43.8731 3.21866 43.8731 3.662C43.8731 4.10533 43.7147 4.479 43.3981 4.783C43.0941 5.07433 42.7077 5.22 42.2391 5.22ZM43.5501 6.474V17H40.8901V6.474H43.5501Z" fill="#D84727"/>
<path d="M55.9632 11.509C55.9632 11.889 55.9378 12.231 55.8872 12.535H48.1922C48.2555 13.295 48.5215 13.8903 48.9902 14.321C49.4588 14.7517 50.0352 14.967 50.7192 14.967C51.7072 14.967 52.4102 14.5427 52.8282 13.694H55.6972C55.3932 14.7073 54.8105 15.5433 53.9492 16.202C53.0878 16.848 52.0302 17.171 50.7762 17.171C49.7628 17.171 48.8508 16.9493 48.0402 16.506C47.2422 16.05 46.6152 15.4103 46.1592 14.587C45.7158 13.7637 45.4942 12.8137 45.4942 11.737C45.4942 10.6477 45.7158 9.69133 46.1592 8.868C46.6025 8.04466 47.2232 7.41133 48.0212 6.968C48.8192 6.52466 49.7375 6.303 50.7762 6.303C51.7768 6.303 52.6698 6.51833 53.4552 6.949C54.2532 7.37966 54.8675 7.994 55.2982 8.792C55.7415 9.57733 55.9632 10.483 55.9632 11.509ZM53.2082 10.749C53.1955 10.065 52.9485 9.52033 52.4672 9.115C51.9858 8.697 51.3968 8.488 50.7002 8.488C50.0415 8.488 49.4842 8.69066 49.0282 9.096C48.5848 9.48866 48.3125 10.0397 48.2112 10.749H53.2082Z" fill="#D84727"/>
<path d="M36.443 31.473H31.161L30.287 34H27.494L32.263 20.719H35.36L40.129 34H37.317L36.443 31.473ZM35.721 29.345L33.802 23.797L31.883 29.345H35.721Z" fill="#D84727"/>
<path d="M46.0346 23.303C46.8199 23.303 47.5102 23.4613 48.1056 23.778C48.7009 24.082 49.1696 24.481 49.5116 24.975V23.474H52.1906V34.076C52.1906 35.0513 51.9942 35.919 51.6016 36.679C51.2089 37.4517 50.6199 38.0597 49.8346 38.503C49.0492 38.959 48.0992 39.187 46.9846 39.187C45.4899 39.187 44.2612 38.8387 43.2986 38.142C42.3486 37.4453 41.8102 36.4953 41.6836 35.292H44.3246C44.4639 35.7733 44.7616 36.1533 45.2176 36.432C45.6862 36.7233 46.2499 36.869 46.9086 36.869C47.6812 36.869 48.3082 36.6347 48.7896 36.166C49.2709 35.71 49.5116 35.0133 49.5116 34.076V32.442C49.1696 32.936 48.6946 33.3477 48.0866 33.677C47.4912 34.0063 46.8072 34.171 46.0346 34.171C45.1479 34.171 44.3372 33.943 43.6026 33.487C42.8679 33.031 42.2852 32.3913 41.8546 31.568C41.4366 30.732 41.2276 29.7757 41.2276 28.699C41.2276 27.635 41.4366 26.6913 41.8546 25.868C42.2852 25.0447 42.8616 24.4113 43.5836 23.968C44.3182 23.5247 45.1352 23.303 46.0346 23.303ZM49.5116 28.737C49.5116 28.091 49.3849 27.54 49.1316 27.084C48.8782 26.6153 48.5362 26.2607 48.1056 26.02C47.6749 25.7667 47.2126 25.64 46.7186 25.64C46.2246 25.64 45.7686 25.7603 45.3506 26.001C44.9326 26.2417 44.5906 26.5963 44.3246 27.065C44.0712 27.521 43.9446 28.0657 43.9446 28.699C43.9446 29.3323 44.0712 29.8897 44.3246 30.371C44.5906 30.8397 44.9326 31.2007 45.3506 31.454C45.7812 31.7073 46.2372 31.834 46.7186 31.834C47.2126 31.834 47.6749 31.7137 48.1056 31.473C48.5362 31.2197 48.8782 30.865 49.1316 30.409C49.3849 29.9403 49.5116 29.383 49.5116 28.737Z" fill="#D84727"/>
<path d="M64.5735 28.509C64.5735 28.889 64.5482 29.231 64.4975 29.535H56.8025C56.8658 30.295 57.1318 30.8903 57.6005 31.321C58.0692 31.7517 58.6455 31.967 59.3295 31.967C60.3175 31.967 61.0205 31.5427 61.4385 30.694H64.3075C64.0035 31.7073 63.4208 32.5433 62.5595 33.202C61.6982 33.848 60.6405 34.171 59.3865 34.171C58.3732 34.171 57.4612 33.9493 56.6505 33.506C55.8525 33.05 55.2255 32.4103 54.7695 31.587C54.3262 30.7637 54.1045 29.8137 54.1045 28.737C54.1045 27.6477 54.3262 26.6913 54.7695 25.868C55.2128 25.0447 55.8335 24.4113 56.6315 23.968C57.4295 23.5247 58.3478 23.303 59.3865 23.303C60.3872 23.303 61.2802 23.5183 62.0655 23.949C62.8635 24.3797 63.4778 24.994 63.9085 25.792C64.3518 26.5773 64.5735 27.483 64.5735 28.509ZM61.8185 27.749C61.8058 27.065 61.5588 26.5203 61.0775 26.115C60.5962 25.697 60.0072 25.488 59.3105 25.488C58.6518 25.488 58.0945 25.6907 57.6385 26.096C57.1952 26.4887 56.9228 27.0397 56.8215 27.749H61.8185Z" fill="#D84727"/>
<path d="M72.3481 23.322C73.6021 23.322 74.6154 23.721 75.3881 24.519C76.1607 25.3043 76.5471 26.4063 76.5471 27.825V34H73.8871V28.186C73.8871 27.35 73.6781 26.7103 73.2601 26.267C72.8421 25.811 72.2721 25.583 71.5501 25.583C70.8154 25.583 70.2327 25.811 69.8021 26.267C69.3841 26.7103 69.1751 27.35 69.1751 28.186V34H66.5151V23.474H69.1751V24.785C69.5297 24.329 69.9794 23.9743 70.5241 23.721C71.0814 23.455 71.6894 23.322 72.3481 23.322Z" fill="#D84727"/>
<path d="M78.3926 28.699C78.3926 27.635 78.6016 26.6913 79.0196 25.868C79.4503 25.0447 80.0329 24.4113 80.7676 23.968C81.5023 23.5247 82.3193 23.303 83.2186 23.303C83.9026 23.303 84.5549 23.455 85.1756 23.759C85.7963 24.0503 86.2903 24.443 86.6576 24.937V19.94H89.3556V34H86.6576V32.442C86.3283 32.9613 85.8659 33.3793 85.2706 33.696C84.6753 34.0127 83.9849 34.171 83.1996 34.171C82.3129 34.171 81.5023 33.943 80.7676 33.487C80.0329 33.031 79.4503 32.3913 79.0196 31.568C78.6016 30.732 78.3926 29.7757 78.3926 28.699ZM86.6766 28.737C86.6766 28.091 86.5499 27.54 86.2966 27.084C86.0433 26.6153 85.7013 26.2607 85.2706 26.02C84.8399 25.7667 84.3776 25.64 83.8836 25.64C83.3896 25.64 82.9336 25.7603 82.5156 26.001C82.0976 26.2417 81.7556 26.5963 81.4896 27.065C81.2363 27.521 81.1096 28.0657 81.1096 28.699C81.1096 29.3323 81.2363 29.8897 81.4896 30.371C81.7556 30.8397 82.0976 31.2007 82.5156 31.454C82.9463 31.7073 83.4023 31.834 83.8836 31.834C84.3776 31.834 84.8399 31.7137 85.2706 31.473C85.7013 31.2197 86.0433 30.865 86.2966 30.409C86.5499 29.9403 86.6766 29.383 86.6766 28.737Z" fill="#D84727"/>
<path d="M91.2696 28.699C91.2696 27.635 91.4786 26.6913 91.8966 25.868C92.3272 25.0447 92.9035 24.4113 93.6255 23.968C94.3602 23.5247 95.1772 23.303 96.0766 23.303C96.8619 23.303 97.5459 23.4613 98.1286 23.778C98.7239 24.0947 99.1989 24.4937 99.5536 24.975V23.474H102.233V34H99.5536V32.461C99.2116 32.955 98.7366 33.3667 98.1286 33.696C97.5332 34.0127 96.8429 34.171 96.0576 34.171C95.1709 34.171 94.3602 33.943 93.6255 33.487C92.9035 33.031 92.3272 32.3913 91.8966 31.568C91.4786 30.732 91.2696 29.7757 91.2696 28.699ZM99.5536 28.737C99.5536 28.091 99.4269 27.54 99.1736 27.084C98.9202 26.6153 98.5782 26.2607 98.1476 26.02C97.7169 25.7667 97.2546 25.64 96.7606 25.64C96.2666 25.64 95.8106 25.7603 95.3926 26.001C94.9746 26.2417 94.6326 26.5963 94.3666 27.065C94.1132 27.521 93.9865 28.0657 93.9865 28.699C93.9865 29.3323 94.1132 29.8897 94.3666 30.371C94.6326 30.8397 94.9746 31.2007 95.3926 31.454C95.8232 31.7073 96.2792 31.834 96.7606 31.834C97.2546 31.834 97.7169 31.7137 98.1476 31.473C98.5782 31.2197 98.9202 30.865 99.1736 30.409C99.4269 29.9403 99.5536 29.383 99.5536 28.737Z" fill="#D84727"/>
<path d="M69.9716 0.10663C69.8615 0.164792 69.7915 0.31989 69.7915 0.504069C69.7915 0.736716 69.9316 0.940282 70.4919 1.49282C71.2124 2.21984 71.2924 2.32647 71.0523 2.32647C70.9822 2.32647 70.652 2.45249 70.3318 2.61728C69.7615 2.8984 69.7014 2.90809 68.3306 2.90809C67.5501 2.90809 66.6795 2.95656 66.3893 3.00503C64.7083 3.31522 63.4074 4.55601 63.0872 6.15546C63.0072 6.5529 62.9872 7.9197 63.0072 10.5176C63.0372 14.1139 63.0472 14.3272 63.2574 14.8022C63.7477 15.9945 64.7783 16.8766 66.0291 17.2062L66.6895 17.3807V17.749C66.6895 18.1949 66.9597 18.4179 67.49 18.4179C68.0304 18.4179 68.2905 18.195 68.2905 17.7297V17.3516L72.8234 17.371L77.3463 17.4001L77.3963 17.7393C77.5164 18.573 78.9973 18.4373 78.9973 17.5843C78.9973 17.4001 79.0673 17.3613 79.5477 17.3031C81.1287 17.119 82.5896 15.7522 82.8998 14.1624C83.0399 13.4451 83.0299 6.74677 82.8898 6.0876C82.5496 4.53662 81.2387 3.30553 79.5977 3.00503C79.3075 2.95656 78.2068 2.90809 77.1561 2.90809H75.2449L74.6546 2.61728C74.3344 2.45249 74.0041 2.32647 73.9341 2.32647C73.694 2.32647 73.774 2.21984 74.5445 1.44435C74.9547 1.03722 75.295 0.63978 75.295 0.562231C75.295 0.329584 74.9948 0 74.7746 0C74.6446 0 74.1643 0.378052 73.5138 0.979057L72.4632 1.95811L71.4525 0.979057C70.8922 0.436214 70.3719 0 70.2918 0C70.2118 0 70.0617 0.0484682 69.9716 0.10663ZM77.7965 4.69172C78.477 5.05038 78.8872 5.43813 79.1874 6.02944L79.4976 6.62075V10.1686C79.4976 13.7165 79.4976 13.7165 79.2575 14.2206C78.9373 14.8894 78.3069 15.4517 77.6264 15.7037C77.0861 15.8976 76.926 15.9073 71.8528 15.8782C66.6595 15.8491 66.6395 15.8491 66.2192 15.6261C65.5588 15.2869 65.1185 14.8603 64.8183 14.269L64.5382 13.7165L64.5081 10.4885C64.4681 6.90187 64.5181 6.46565 65.0185 5.74832C65.3587 5.26364 66.0992 4.71111 66.6295 4.5657C66.7996 4.50754 69.2011 4.47846 72.193 4.48815C77.1361 4.50754 77.4663 4.51723 77.7965 4.69172ZM81.7591 8.19112C82.0793 8.66611 81.649 9.21865 81.0686 9.08293C80.8585 9.02477 80.5983 8.6758 80.5983 8.43346C80.5983 8.22989 81.0086 7.94878 81.2988 7.94878C81.4989 7.94878 81.649 8.02633 81.7591 8.19112ZM81.7991 9.90689C81.9292 10.1492 81.9292 10.2074 81.7991 10.44C81.5289 10.8956 80.9085 10.8569 80.6984 10.3722C80.5983 10.1298 80.5983 10.0426 80.7384 9.82934C80.9786 9.48037 81.5789 9.52884 81.7991 9.90689ZM81.749 11.4676C81.9592 11.7487 81.9392 11.9813 81.689 12.2237C81.4188 12.4854 81.0186 12.4272 80.7684 12.0977C80.5983 11.8747 80.5783 11.7972 80.6784 11.5839C80.8885 11.138 81.4689 11.0798 81.749 11.4676Z" fill="#D84727"/>
<path d="M66.9897 5.3218C66.1792 5.57383 65.6088 6.10698 65.3387 6.87278C65.1786 7.35746 65.1986 7.56103 65.4087 7.56103C65.4687 7.56103 65.7789 7.27991 66.0991 6.94064C66.4294 6.60136 66.9397 6.15545 67.2499 5.96158C67.6101 5.72893 67.7902 5.54475 67.7702 5.44782C67.7302 5.26364 67.3699 5.20548 66.9897 5.3218Z" fill="#D84727"/>
<path d="M70.3518 7.28962C70.2218 7.4738 70.1917 7.88093 70.1917 9.80996C70.1917 12.0201 70.2018 12.1267 70.4019 12.3206C70.532 12.4466 70.6921 12.5048 70.8021 12.4757C71.1724 12.3788 74.9247 10.2268 75.0548 10.0329C75.335 9.61609 75.1549 9.46099 73.0035 8.23959C71.8628 7.59981 70.8322 7.07636 70.7121 7.07636C70.602 7.07636 70.4319 7.17329 70.3518 7.28962Z" fill="#D84727"/>
</svg>
